# xmcd CD database file
# Copyright (C) 1996 Ti Kan
#
# Track frame offsets:
#	187
#	14235
#	27075
#	38952
#	53195
#	66752
#	78380
#	92982
#	106740
#	119402
#	133945
#	147295
#	160530
#	172825
#	185972
#	197405
#	210575
#	223677
#	237292
#	249462
#	260465
#	273067
#
# Disc length: 3761 seconds
#
# Revision: 1
# Processed by: cddbd v1.4b41PL1 Copyright (c) Steve Scherf et al.
# Submitted via: EasyCD 2.21 - (C) 1996 Greg Leichner
#
DISCID=3c0eaf16
DTITLE=Arthur "Big Boy" Crudup - That's All Right Mama
DYEAR=1900
DGENRE=
TTITLE0=If I Get Lucky
TTITLE1=Gonna Follow My Baby
TTITLE2=Mean Old Frisco Blues
TTITLE3=Cool Disposition
TTITLE4=Rock Me Mama
TTITLE5=Keep Your Arms Around Me
TTITLE6=That's Your Red Wagon
TTITLE7=She's Gone
TTITLE8=So Glad Your"re Mine
TTITLE9=Chicago Blues
TTITLE10=Crudup's After Hours
TTITLE11=That's All Right
TTITLE12=Shout, Sister,  Shout
TTITLE13=She Ain't Nothin' But Trouble
TTITLE14=My Babay Left Me
TTITLE15=Too Much Competition
TTITLE16=Second Man Blues
TTITLE17=I'm Gonna Dig Myself a Hole
TTITLE18=Mr. So and So
TTITLE19=My Wife And Woman
TTITLE20=I Love You
TTITLE21=She's Got No Hair
EXTD=
EXTT0=
EXTT1=
EXTT2=
EXTT3=
EXTT4=
EXTT5=
EXTT6=
EXTT7=
EXTT8=
EXTT9=
EXTT10=
EXTT11=
EXTT12=
EXTT13=
EXTT14=
EXTT15=
EXTT16=
EXTT17=
EXTT18=
EXTT19=
EXTT20=
EXTT21=
PLAYORDER=
